<svg width="29" height="29" viewBox="0 0 29 29" fill="none" xmlns="http://www.w3.org/2000/svg">
<g clip-path="url(#clip0_5_2)">
<g filter="url(#filter0_di_5_2)">
<mask id="path-1-outside-1_5_2" maskUnits="userSpaceOnUse" x="5.37244" y="3.79086" width="18" height="20" fill="black">
<rect fill="white" x="5.37244" y="3.79086" width="18" height="20"/>
<path fill-rule="evenodd" clip-rule="evenodd" d="M13.0794 4.81139C8.17644 7.50309 5.96988 11.7034 6.45999 17.4124C6.99163 19.5811 8.14921 21.3107 9.93242 22.6012C10.2951 21.679 10.2185 20.7888 9.70282 19.9305C10.5162 19.9518 11.2569 19.7382 11.9247 19.2901C12.338 18.7917 12.472 18.2258 12.3264 17.5923C11.4056 18.3157 10.374 18.6093 9.23162 18.4728C8.27146 17.8683 8.0362 17.0315 8.52582 15.9625C9.62427 13.8846 11.2916 13.1077 13.5278 13.6316C14.5635 14.4866 15.0622 15.5938 15.024 16.9534C15.71 16.0257 15.8982 15.0014 15.5884 13.8807C16.642 13.7495 17.6993 13.6718 18.7605 13.6478C20.292 13.3316 21.4574 12.4991 22.2566 11.1504C20.5618 7.44235 17.7123 5.89633 13.7084 6.51237C13.4205 5.97559 13.2107 5.4086 13.0794 4.81139ZM17.037 6.92721C12.7937 6.773 9.59049 8.54306 7.42735 12.2374C6.67775 14.5165 6.72357 16.782 7.56494 19.034C7.46022 17.0524 8.0734 15.3553 9.40416 13.9425C9.90976 13.6058 10.4392 13.3106 10.9926 13.0575C11.1386 12.7078 11.3246 12.3847 11.5505 12.0883C11.628 12.353 11.6535 12.6228 11.6273 12.8976C12.3024 12.9641 12.5941 12.6414 12.5024 11.9294L13.2992 10.6374C13.1043 11.3599 13.0227 12.1148 13.0544 12.902L13.8472 12.9045C13.7071 11.6996 14.0012 10.6217 14.7293 9.67092C14.3608 10.7426 14.4368 11.7946 14.9574 12.827C16.7646 13.0919 18.5095 12.8816 20.192 12.1959C20.5894 11.9005 20.934 11.5509 21.2259 11.1473C20.5928 8.96803 19.1964 7.56134 17.037 6.92721ZM17.5823 10.1652C17.3484 9.0312 17.799 8.54715 18.9343 8.71302C19.4514 9.17792 19.529 9.71753 19.1671 10.3319C18.5797 10.8034 18.0515 10.7478 17.5823 10.1652Z"/>
</mask>
<path fill-rule="evenodd" clip-rule="evenodd" d="M13.0794 4.81139C8.17644 7.50309 5.96988 11.7034 6.45999 17.4124C6.99163 19.5811 8.14921 21.3107 9.93242 22.6012C10.2951 21.679 10.2185 20.7888 9.70282 19.9305C10.5162 19.9518 11.2569 19.7382 11.9247 19.2901C12.338 18.7917 12.472 18.2258 12.3264 17.5923C11.4056 18.3157 10.374 18.6093 9.23162 18.4728C8.27146 17.8683 8.0362 17.0315 8.52582 15.9625C9.62427 13.8846 11.2916 13.1077 13.5278 13.6316C14.5635 14.4866 15.0622 15.5938 15.024 16.9534C15.71 16.0257 15.8982 15.0014 15.5884 13.8807C16.642 13.7495 17.6993 13.6718 18.7605 13.6478C20.292 13.3316 21.4574 12.4991 22.2566 11.1504C20.5618 7.44235 17.7123 5.89633 13.7084 6.51237C13.4205 5.97559 13.2107 5.4086 13.0794 4.81139ZM17.037 6.92721C12.7937 6.773 9.59049 8.54306 7.42735 12.2374C6.67775 14.5165 6.72357 16.782 7.56494 19.034C7.46022 17.0524 8.0734 15.3553 9.40416 13.9425C9.90976 13.6058 10.4392 13.3106 10.9926 13.0575C11.1386 12.7078 11.3246 12.3847 11.5505 12.0883C11.628 12.353 11.6535 12.6228 11.6273 12.8976C12.3024 12.9641 12.5941 12.6414 12.5024 11.9294L13.2992 10.6374C13.1043 11.3599 13.0227 12.1148 13.0544 12.902L13.8472 12.9045C13.7071 11.6996 14.0012 10.6217 14.7293 9.67092C14.3608 10.7426 14.4368 11.7946 14.9574 12.827C16.7646 13.0919 18.5095 12.8816 20.192 12.1959C20.5894 11.9005 20.934 11.5509 21.2259 11.1473C20.5928 8.96803 19.1964 7.56134 17.037 6.92721ZM17.5823 10.1652C17.3484 9.0312 17.799 8.54715 18.9343 8.71302C19.4514 9.17792 19.529 9.71753 19.1671 10.3319C18.5797 10.8034 18.0515 10.7478 17.5823 10.1652Z" fill="#0EA5E9"/>
<path d="M6.45999 17.4124L6.19732 17.435L6.19907 17.4553L6.20393 17.4752L6.45999 17.4124ZM13.0794 4.81139L13.3368 4.75476L13.2612 4.41081L12.9525 4.58029L13.0794 4.81139ZM9.93242 22.6012L9.77786 22.8147L10.0533 23.0141L10.1778 22.6976L9.93242 22.6012ZM9.70282 19.9305L9.70971 19.667L9.22933 19.6544L9.47684 20.0663L9.70282 19.9305ZM11.9247 19.2901L12.0716 19.5091L12.1033 19.4878L12.1276 19.4584L11.9247 19.2901ZM12.3264 17.5923L12.5833 17.5333L12.4902 17.1284L12.1635 17.385L12.3264 17.5923ZM9.23162 18.4728L9.09117 18.6959L9.1414 18.7275L9.20033 18.7345L9.23162 18.4728ZM8.52582 15.9625L8.29274 15.8393L8.28924 15.8459L8.28612 15.8527L8.52582 15.9625ZM13.5278 13.6316L13.6957 13.4283L13.6481 13.389L13.588 13.3749L13.5278 13.6316ZM15.024 16.9534L14.7604 16.946L14.7368 17.7851L15.2359 17.1102L15.024 16.9534ZM15.5884 13.8807L15.5558 13.6191L15.253 13.6568L15.3343 13.9509L15.5884 13.8807ZM18.7605 13.6478L18.7664 13.9113L18.7903 13.9108L18.8137 13.906L18.7605 13.6478ZM22.2566 11.1504L22.4834 11.2848L22.5537 11.1662L22.4964 11.0408L22.2566 11.1504ZM13.7084 6.51237L13.476 6.63698L13.5642 6.8013L13.7485 6.77294L13.7084 6.51237ZM7.42735 12.2374L7.19984 12.1042L7.18567 12.1284L7.17691 12.155L7.42735 12.2374ZM17.037 6.92721L17.1112 6.67425L17.0796 6.66494L17.0465 6.66374L17.037 6.92721ZM7.56494 19.034L7.31798 19.1263L7.82821 19.0201L7.56494 19.034ZM9.40416 13.9425L9.258 13.7231L9.23292 13.7398L9.21226 13.7618L9.40416 13.9425ZM10.9926 13.0575L11.1022 13.2972L11.1961 13.2543L11.2358 13.159L10.9926 13.0575ZM11.5505 12.0883L11.8035 12.0142L11.657 11.5138L11.3409 11.9285L11.5505 12.0883ZM11.6273 12.8976L11.3649 12.8726L11.3399 13.1342L11.6015 13.16L11.6273 12.8976ZM12.5024 11.9294L12.278 11.791L12.229 11.8705L12.2409 11.9631L12.5024 11.9294ZM13.2992 10.6374L13.5538 10.706L13.0748 10.499L13.2992 10.6374ZM13.0544 12.902L12.791 12.9126L12.8011 13.1649L13.0536 13.1657L13.0544 12.902ZM13.8472 12.9045L13.8464 13.1681L14.1434 13.169L14.1091 12.874L13.8472 12.9045ZM14.7293 9.67092L14.9786 9.75664L14.52 9.51064L14.7293 9.67092ZM14.9574 12.827L14.722 12.9457L14.7837 13.068L14.9192 13.0878L14.9574 12.827ZM20.192 12.1959L20.2915 12.44L20.3225 12.4274L20.3493 12.4074L20.192 12.1959ZM21.2259 11.1473L21.4396 11.3018L21.515 11.1974L21.4791 11.0737L21.2259 11.1473ZM18.9343 8.71302L19.1106 8.51697L19.0513 8.46367L18.9724 8.45215L18.9343 8.71302ZM17.5823 10.1652L17.3241 10.2184L17.337 10.2809L17.377 10.3305L17.5823 10.1652ZM19.1671 10.3319L19.3321 10.5375L19.3698 10.5073L19.3943 10.4657L19.1671 10.3319ZM6.72266 17.3899C6.48101 14.5751 6.90533 12.1501 7.98068 10.103C9.05579 8.0564 10.7919 6.36797 13.2062 5.04249L12.9525 4.58029C10.4639 5.94652 8.64526 7.70411 7.51389 9.85782C6.38276 12.0111 5.94886 14.5408 6.19732 17.435L6.72266 17.3899ZM10.087 22.3876C8.3552 21.1343 7.23303 19.4585 6.71604 17.3496L6.20393 17.4752C6.75022 19.7036 7.94322 21.4871 9.77786 22.8147L10.087 22.3876ZM9.47684 20.0663C9.95087 20.8552 10.0194 21.6597 9.68707 22.5047L10.1778 22.6976C10.5707 21.6983 10.4862 20.7223 9.92879 19.7947L9.47684 20.0663ZM11.7778 19.0712C11.1559 19.4885 10.4691 19.6869 9.70971 19.667L9.69592 20.1941C10.5633 20.2168 11.3578 19.988 12.0716 19.5091L11.7778 19.0712ZM12.0694 17.6514C12.1968 18.2051 12.0825 18.6869 11.7218 19.1218L12.1276 19.4584C12.5936 18.8965 12.7473 18.2465 12.5833 17.5333L12.0694 17.6514ZM9.20033 18.7345C10.4135 18.8795 11.5146 18.5653 12.4892 17.7997L12.1635 17.385C11.2965 18.0661 10.3345 18.3391 9.2629 18.211L9.20033 18.7345ZM8.28612 15.8527C8.02451 16.4239 7.94156 16.9664 8.08126 17.4632C8.22141 17.9617 8.57311 18.3698 9.09117 18.6959L9.37207 18.2497C8.92997 17.9713 8.68396 17.6588 8.58885 17.3205C8.49327 16.9806 8.5375 16.5701 8.76551 16.0723L8.28612 15.8527ZM13.588 13.3749C12.4269 13.1029 11.3882 13.1633 10.4888 13.5824C9.59011 14.0012 8.86131 14.7637 8.29274 15.8393L8.75889 16.0857C9.28878 15.0833 9.94288 14.4185 10.7115 14.0604C11.4794 13.7025 12.3925 13.6364 13.4677 13.8883L13.588 13.3749ZM15.2875 16.9608C15.328 15.5212 14.7949 14.3358 13.6957 13.4283L13.36 13.8349C14.332 14.6374 14.7965 15.6664 14.7604 16.946L15.2875 16.9608ZM15.3343 13.9509C15.6227 14.9942 15.4494 15.9347 14.812 16.7966L15.2359 17.1102C15.9706 16.1167 16.1737 15.0086 15.8425 13.8105L15.3343 13.9509ZM18.7545 13.3842C17.6845 13.4085 16.6182 13.4868 15.5558 13.6191L15.621 14.1423C16.6658 14.0122 17.7142 13.9352 18.7664 13.9113L18.7545 13.3842ZM22.0298 11.016C21.2683 12.301 20.1659 13.0885 18.7072 13.3896L18.8137 13.906C20.4182 13.5748 21.6465 12.6971 22.4834 11.2848L22.0298 11.016ZM13.7485 6.77294C15.708 6.47146 17.3601 6.70228 18.7227 7.44158C20.0854 8.18097 21.187 9.44441 22.0168 11.26L22.4964 11.0408C21.6314 9.14838 20.4608 7.78476 18.9741 6.97813C17.4873 6.1714 15.7127 5.93724 13.6683 6.2518L13.7485 6.77294ZM12.8219 4.86802C12.9584 5.48888 13.1767 6.07876 13.476 6.63698L13.9407 6.38777C13.6643 5.87242 13.463 5.32831 13.3368 4.75476L12.8219 4.86802ZM7.65486 12.3706C8.71658 10.5573 10.0261 9.22831 11.5796 8.36985C13.133 7.51145 14.9458 7.11502 17.0274 7.19067L17.0465 6.66374C14.8849 6.58518 12.9744 6.99668 11.3246 7.90835C9.67492 8.81995 8.30126 10.2231 7.19984 12.1042L7.65486 12.3706ZM7.81191 18.9417C6.99146 16.7458 6.94695 14.5418 7.67779 12.3198L7.17691 12.155C6.40856 14.4912 6.45568 16.8183 7.31798 19.1263L7.81191 18.9417ZM9.21226 13.7618C7.83089 15.2282 7.19325 16.9962 7.30167 19.0479L7.82821 19.0201C7.7272 17.1086 8.31591 15.4823 9.59606 14.1233L9.21226 13.7618ZM10.8829 12.8177C10.3168 13.0767 9.77518 13.3786 9.258 13.7231L9.55032 14.162C10.0443 13.8329 10.5615 13.5445 11.1022 13.2972L10.8829 12.8177ZM11.3409 11.9285C11.1011 12.243 10.9038 12.5857 10.7493 12.9559L11.2358 13.159C11.3733 12.8298 11.5481 12.5263 11.7602 12.2481L11.3409 11.9285ZM11.8898 12.9227C11.9191 12.6146 11.8905 12.3112 11.8035 12.0142L11.2975 12.1624C11.3656 12.3948 11.3879 12.6309 11.3649 12.8726L11.8898 12.9227ZM12.2409 11.9631C12.2832 12.291 12.2254 12.4527 12.1568 12.5287C12.0928 12.5995 11.9551 12.665 11.6531 12.6352L11.6015 13.16C11.9746 13.1967 12.3203 13.1341 12.548 12.8822C12.7711 12.6354 12.8133 12.2798 12.7639 11.8958L12.2409 11.9631ZM13.0748 10.499L12.278 11.791L12.7268 12.0678L13.5236 10.7758L13.0748 10.499ZM13.3178 12.8914C13.2872 12.1295 13.3662 11.4014 13.5538 10.706L13.0447 10.5687C12.8425 11.3184 12.7583 12.1001 12.791 12.9126L13.3178 12.8914ZM13.848 12.6408L13.0552 12.6384L13.0536 13.1657L13.8464 13.1681L13.848 12.6408ZM14.52 9.51064C13.7497 10.5166 13.4374 11.663 13.5853 12.9349L14.1091 12.874C13.9768 11.7362 14.2528 10.7269 14.9386 9.8312L14.52 9.51064ZM15.1928 12.7083C14.7035 11.738 14.6338 10.7596 14.9786 9.75664L14.48 9.5852C14.0879 10.7256 14.1702 11.8513 14.722 12.9457L15.1928 12.7083ZM20.0925 11.9517C18.4538 12.6196 16.7565 12.8243 14.9957 12.5661L14.9192 13.0878C16.7727 13.3596 18.5651 13.1436 20.2915 12.44L20.0925 11.9517ZM21.0123 10.9928C20.736 11.3748 20.4103 11.705 20.0347 11.9843L20.3493 12.4074C20.7684 12.0959 21.132 11.7271 21.4396 11.3018L21.0123 10.9928ZM16.9627 7.18016C19.0349 7.78868 20.3644 9.12712 20.9728 11.2208L21.4791 11.0737C20.8211 8.80894 19.3579 7.33399 17.1112 6.67425L16.9627 7.18016ZM18.9724 8.45215C18.3812 8.36578 17.8689 8.43148 17.5519 8.77201C17.2359 9.11144 17.2026 9.62923 17.3241 10.2184L17.8405 10.1119C17.7281 9.56714 17.8032 9.27592 17.9378 9.1313C18.0714 8.98778 18.3521 8.89439 18.8962 8.97389L18.9724 8.45215ZM19.3943 10.4657C19.5962 10.1229 19.6909 9.77408 19.6413 9.42888C19.5915 9.08269 19.4021 8.77909 19.1106 8.51697L18.758 8.90907C18.9836 9.11185 19.0915 9.3105 19.1194 9.50393C19.1473 9.69835 19.0999 9.92649 18.9399 10.1981L19.3943 10.4657ZM17.377 10.3305C17.6374 10.6539 17.9445 10.8683 18.3028 10.906C18.6606 10.9437 19.0071 10.7984 19.3321 10.5375L19.0021 10.1263C18.7397 10.3369 18.5284 10.3996 18.358 10.3816C18.188 10.3638 17.9965 10.2591 17.7877 9.99982L17.377 10.3305Z" fill="#0EA5E9" mask="url(#path-1-outside-1_5_2)"/>
<path d="M24.6433 18.7604C24.6639 18.7288 24.7033 18.715 24.7386 18.7282V18.7282C24.7791 18.7434 24.8007 18.7881 24.7868 18.829C24.1109 20.8208 23.2947 22.5566 21.142 23.4987C20.8083 23.6125 20.5426 23.6708 20.2508 23.6385C19.8779 23.5972 19.5415 23.3778 19.3031 23.0882C19.2318 23.0016 19.1976 22.9317 19.1737 22.8367C19.1338 22.6786 19.1424 22.4961 19.1827 22.3381V22.3381C19.2661 22.0111 19.5669 21.8059 19.8909 21.7114C20.0582 21.6625 20.2277 21.6221 20.4177 21.5848C22.4611 21.1603 23.5937 20.3725 24.6433 18.7604Z" fill="#0EA5E9"/>
<path d="M17.0482 20.7283C17.0872 20.5141 17.2585 20.5151 17.4762 20.5116C17.8928 20.5047 18.2899 20.5961 18.7053 20.6684C19.7522 20.8364 20.7025 20.7878 21.7689 20.645C21.8372 20.6359 21.9018 20.6771 21.9208 20.7433V20.7433C21.9414 20.815 21.8994 20.8918 21.8284 20.9148C19.0353 21.8188 18.722 21.9085 17.5364 21.5121C17.2536 21.4176 16.9949 21.0217 17.0482 20.7283V20.7283Z" fill="#0EA5E9"/>
<path d="M19.285 20.115C19.5398 20.1846 19.4346 20.4852 19.1709 20.471C18.055 20.4108 16.9748 20.2168 16.0677 19.4261C16.0606 19.4182 16.0536 19.4102 16.0465 19.4022C15.9404 19.2819 15.9371 19.1036 16.0404 18.9809V18.9809C16.1348 18.869 16.2938 18.8327 16.4264 18.8947C16.4307 18.8967 16.4351 18.8987 16.4396 18.9008C16.7978 19.0668 17.1565 19.2317 17.5152 19.3965C17.6387 19.4542 17.7622 19.5119 17.8896 19.5713C18.0098 19.6261 18.13 19.6808 18.2535 19.7385C18.3633 19.7885 18.4739 19.8403 18.5863 19.8915C18.9166 20.0365 18.9166 20.0365 19.285 20.115V20.115Z" fill="#0EA5E9"/>
<path fill-rule="evenodd" clip-rule="evenodd" d="M20.8103 18.9801C21.3554 19.4627 22.1884 19.4121 22.671 18.867C23.1536 18.3219 23.103 17.4889 22.5579 17.0063C22.0128 16.5237 21.1797 16.5743 20.6972 17.1194C20.2146 17.6645 20.2652 18.4975 20.8103 18.9801ZM20.9804 18.7038C21.3135 18.9988 21.8227 18.9678 22.1177 18.6347C22.4127 18.3015 22.3817 17.7923 22.0486 17.4973C21.7154 17.2024 21.2062 17.2333 20.9112 17.5665C20.6163 17.8996 20.6472 18.4088 20.9804 18.7038Z" fill="#0EA5E9"/>
<path d="M21.7271 18.5474C21.5453 18.7528 21.2314 18.7719 21.026 18.5901C20.8206 18.4082 20.8015 18.0943 20.9834 17.8889C21.1652 17.6836 21.4791 17.6645 21.6845 17.8463C21.8899 18.0282 21.909 18.3421 21.7271 18.5474Z" fill="#0EA5E9"/>
<path d="M18.6302 24.4523C17.2636 25.0459 15.7554 25.375 14.1704 25.375C7.98233 25.375 2.96588 20.3586 2.96588 14.1705C2.96588 7.98236 7.98233 2.96591 14.1704 2.96591C20.3585 2.96591 25.375 7.98236 25.375 14.1705C25.375 15.2691 25.2168 16.3308 24.9221 17.3341" stroke="#0EA5E9" stroke-width="1.05455" stroke-linecap="round"/>
</g>
</g>
<defs>
<filter id="filter0_di_5_2" x="1.70198" y="2.43863" width="24.9369" height="25.2006" filterUnits="userSpaceOnUse" color-interpolation-filters="sRGB">
<feFlood flood-opacity="0" result="BackgroundImageFix"/>
<feColorMatrix in="SourceAlpha" type="matrix" values="0 0 0 0 0 0 0 0 0 0 0 0 0 0 0 0 0 0 127 0" result="hardAlpha"/>
<feOffset dy="1.00035"/>
<feGaussianBlur stdDeviation="0.36831"/>
<feComposite in2="hardAlpha" operator="out"/>
<feColorMatrix type="matrix" values="0 0 0 0 0 0 0 0 0 0.109804 0 0 0 0 0.266667 0 0 0 0.2 0"/>
<feBlend mode="normal" in2="BackgroundImageFix" result="effect1_dropShadow_5_2"/>
<feBlend mode="normal" in="SourceGraphic" in2="effect1_dropShadow_5_2" result="shape"/>
<feColorMatrix in="SourceAlpha" type="matrix" values="0 0 0 0 0 0 0 0 0 0 0 0 0 0 0 0 0 0 127 0" result="hardAlpha"/>
<feOffset dy="0.545645"/>
<feGaussianBlur stdDeviation="0.20007"/>
<feComposite in2="hardAlpha" operator="arithmetic" k2="-1" k3="1"/>
<feColorMatrix type="matrix" values="0 0 0 0 1 0 0 0 0 1 0 0 0 0 1 0 0 0 0.2 0"/>
<feBlend mode="normal" in2="shape" result="effect2_innerShadow_5_2"/>
</filter>
<clipPath id="clip0_5_2">
<rect width="26.3636" height="26.3636" fill="white" transform="translate(1.31818 1.31818)"/>
</clipPath>
</defs>
</svg>
